<mxfile host="65bd71144e">
    <diagram id="HQ-1XKifhC8nPTS6vmUZ" name="ページ1">
        <mxGraphModel dx="838" dy="694" grid="1" gridSize="10" guides="1" tooltips="1" connect="1" arrows="1" fold="1" page="1" pageScale="1" pageWidth="827" pageHeight="1169" math="1" shadow="0">
            <root>
                <mxCell id="0"/>
                <mxCell id="1" parent="0"/>
                <mxCell id="2" value="" style="whiteSpace=wrap;html=1;" vertex="1" parent="1">
                    <mxGeometry x="40" y="80" width="80" height="240" as="geometry"/>
                </mxCell>
                <mxCell id="3" value="" style="whiteSpace=wrap;html=1;" vertex="1" parent="1">
                    <mxGeometry x="140" y="160" width="240" height="80" as="geometry"/>
                </mxCell>
                <mxCell id="4" value="" style="edgeStyle=none;orthogonalLoop=1;jettySize=auto;html=1;endArrow=none;endFill=0;dashed=1;" edge="1" parent="1">
                    <mxGeometry width="100" relative="1" as="geometry">
                        <mxPoint x="40" y="160" as="sourcePoint"/>
                        <mxPoint x="120" y="160" as="targetPoint"/>
                        <Array as="points"/>
                    </mxGeometry>
                </mxCell>
                <mxCell id="5" value="" style="edgeStyle=none;orthogonalLoop=1;jettySize=auto;html=1;endArrow=none;endFill=0;dashed=1;" edge="1" parent="1">
                    <mxGeometry width="100" relative="1" as="geometry">
                        <mxPoint x="40" y="240" as="sourcePoint"/>
                        <mxPoint x="120" y="240" as="targetPoint"/>
                        <Array as="points"/>
                    </mxGeometry>
                </mxCell>
                <mxCell id="6" value="" style="edgeStyle=none;orthogonalLoop=1;jettySize=auto;html=1;endArrow=none;endFill=0;dashed=1;entryX=0.332;entryY=0.987;entryDx=0;entryDy=0;entryPerimeter=0;" edge="1" parent="1" target="3">
                    <mxGeometry width="100" relative="1" as="geometry">
                        <mxPoint x="220" y="160" as="sourcePoint"/>
                        <mxPoint x="220" y="230" as="targetPoint"/>
                        <Array as="points"/>
                    </mxGeometry>
                </mxCell>
                <mxCell id="7" value="" style="edgeStyle=none;orthogonalLoop=1;jettySize=auto;html=1;endArrow=none;endFill=0;dashed=1;entryX=0.332;entryY=0.987;entryDx=0;entryDy=0;entryPerimeter=0;" edge="1" parent="1">
                    <mxGeometry width="100" relative="1" as="geometry">
                        <mxPoint x="300" y="161" as="sourcePoint"/>
                        <mxPoint x="300" y="240" as="targetPoint"/>
                        <Array as="points"/>
                    </mxGeometry>
                </mxCell>
                <mxCell id="8" value="$$A_1$$" style="text;html=1;align=center;verticalAlign=middle;resizable=0;points=[];autosize=1;strokeColor=none;fillColor=none;" vertex="1" parent="1">
                    <mxGeometry x="45" y="110" width="70" height="30" as="geometry"/>
                </mxCell>
                <mxCell id="9" value="$$A_2$$" style="text;html=1;align=center;verticalAlign=middle;resizable=0;points=[];autosize=1;strokeColor=none;fillColor=none;" vertex="1" parent="1">
                    <mxGeometry x="45" y="185" width="70" height="30" as="geometry"/>
                </mxCell>
                <mxCell id="10" value="$$A_3$$" style="text;html=1;align=center;verticalAlign=middle;resizable=0;points=[];autosize=1;strokeColor=none;fillColor=none;" vertex="1" parent="1">
                    <mxGeometry x="45" y="270" width="70" height="30" as="geometry"/>
                </mxCell>
                <mxCell id="11" value="$$B_1$$" style="text;html=1;align=center;verticalAlign=middle;resizable=0;points=[];autosize=1;strokeColor=none;fillColor=none;" vertex="1" parent="1">
                    <mxGeometry x="145" y="187" width="70" height="30" as="geometry"/>
                </mxCell>
                <mxCell id="12" value="$$B_2$$" style="text;html=1;align=center;verticalAlign=middle;resizable=0;points=[];autosize=1;strokeColor=none;fillColor=none;" vertex="1" parent="1">
                    <mxGeometry x="225" y="187" width="70" height="30" as="geometry"/>
                </mxCell>
                <mxCell id="13" value="$$B_3$$" style="text;html=1;align=center;verticalAlign=middle;resizable=0;points=[];autosize=1;strokeColor=none;fillColor=none;" vertex="1" parent="1">
                    <mxGeometry x="307" y="186" width="70" height="30" as="geometry"/>
                </mxCell>
                <mxCell id="14" value="" style="whiteSpace=wrap;html=1;" vertex="1" parent="1">
                    <mxGeometry x="440" y="82" width="240" height="240" as="geometry"/>
                </mxCell>
                <mxCell id="16" value="$$=$$" style="text;html=1;align=center;verticalAlign=middle;resizable=0;points=[];autosize=1;strokeColor=none;fillColor=none;fontSize=20;" vertex="1" parent="1">
                    <mxGeometry x="370" y="182" width="80" height="40" as="geometry"/>
                </mxCell>
                <mxCell id="17" value="" style="edgeStyle=none;orthogonalLoop=1;jettySize=auto;html=1;endArrow=none;endFill=0;dashed=1;entryX=0.324;entryY=1.004;entryDx=0;entryDy=0;entryPerimeter=0;" edge="1" parent="1" target="14">
                    <mxGeometry width="100" relative="1" as="geometry">
                        <mxPoint x="520" y="81" as="sourcePoint"/>
                        <mxPoint x="520" y="160" as="targetPoint"/>
                        <Array as="points"/>
                    </mxGeometry>
                </mxCell>
                <mxCell id="18" value="" style="edgeStyle=none;orthogonalLoop=1;jettySize=auto;html=1;endArrow=none;endFill=0;dashed=1;entryX=0.324;entryY=1.004;entryDx=0;entryDy=0;entryPerimeter=0;" edge="1" parent="1">
                    <mxGeometry width="100" relative="1" as="geometry">
                        <mxPoint x="599" y="80" as="sourcePoint"/>
                        <mxPoint x="597" y="320" as="targetPoint"/>
                        <Array as="points"/>
                    </mxGeometry>
                </mxCell>
                <mxCell id="19" value="" style="edgeStyle=none;orthogonalLoop=1;jettySize=auto;html=1;endArrow=none;endFill=0;dashed=1;entryX=0.324;entryY=1.004;entryDx=0;entryDy=0;entryPerimeter=0;" edge="1" parent="1">
                    <mxGeometry width="100" relative="1" as="geometry">
                        <mxPoint x="680" y="160" as="sourcePoint"/>
                        <mxPoint x="440" y="160" as="targetPoint"/>
                        <Array as="points"/>
                    </mxGeometry>
                </mxCell>
                <mxCell id="20" value="" style="edgeStyle=none;orthogonalLoop=1;jettySize=auto;html=1;endArrow=none;endFill=0;dashed=1;entryX=0.324;entryY=1.004;entryDx=0;entryDy=0;entryPerimeter=0;" edge="1" parent="1">
                    <mxGeometry width="100" relative="1" as="geometry">
                        <mxPoint x="680" y="240" as="sourcePoint"/>
                        <mxPoint x="440" y="240" as="targetPoint"/>
                        <Array as="points"/>
                    </mxGeometry>
                </mxCell>
                <mxCell id="21" value="$$A_1B_1$$" style="text;html=1;align=center;verticalAlign=middle;resizable=0;points=[];autosize=1;strokeColor=none;fillColor=none;" vertex="1" parent="1">
                    <mxGeometry x="435" y="110" width="90" height="30" as="geometry"/>
                </mxCell>
                <mxCell id="22" value="$$A_1B_2$$" style="text;html=1;align=center;verticalAlign=middle;resizable=0;points=[];autosize=1;strokeColor=none;fillColor=none;" vertex="1" parent="1">
                    <mxGeometry x="515" y="110" width="90" height="30" as="geometry"/>
                </mxCell>
                <mxCell id="23" value="$$A_1B_3$$" style="text;html=1;align=center;verticalAlign=middle;resizable=0;points=[];autosize=1;strokeColor=none;fillColor=none;" vertex="1" parent="1">
                    <mxGeometry x="592" y="110" width="90" height="30" as="geometry"/>
                </mxCell>
                <mxCell id="24" value="$$A_2B_1$$" style="text;html=1;align=center;verticalAlign=middle;resizable=0;points=[];autosize=1;strokeColor=none;fillColor=none;" vertex="1" parent="1">
                    <mxGeometry x="435" y="187" width="90" height="30" as="geometry"/>
                </mxCell>
                <mxCell id="25" value="$$A_2B_2$$" style="text;html=1;align=center;verticalAlign=middle;resizable=0;points=[];autosize=1;strokeColor=none;fillColor=none;" vertex="1" parent="1">
                    <mxGeometry x="510" y="187" width="90" height="30" as="geometry"/>
                </mxCell>
                <mxCell id="26" value="$$A_2B_3$$" style="text;html=1;align=center;verticalAlign=middle;resizable=0;points=[];autosize=1;strokeColor=none;fillColor=none;" vertex="1" parent="1">
                    <mxGeometry x="592" y="187" width="90" height="30" as="geometry"/>
                </mxCell>
                <mxCell id="27" value="$$A_3B_3$$" style="text;html=1;align=center;verticalAlign=middle;resizable=0;points=[];autosize=1;strokeColor=none;fillColor=none;" vertex="1" parent="1">
                    <mxGeometry x="592" y="270" width="90" height="30" as="geometry"/>
                </mxCell>
                <mxCell id="28" value="$$A_3B_1$$" style="text;html=1;align=center;verticalAlign=middle;resizable=0;points=[];autosize=1;strokeColor=none;fillColor=none;" vertex="1" parent="1">
                    <mxGeometry x="435" y="270" width="90" height="30" as="geometry"/>
                </mxCell>
                <mxCell id="29" value="$$A_3B_2$$" style="text;html=1;align=center;verticalAlign=middle;resizable=0;points=[];autosize=1;strokeColor=none;fillColor=none;" vertex="1" parent="1">
                    <mxGeometry x="510" y="270" width="90" height="30" as="geometry"/>
                </mxCell>
                <mxCell id="30" value="" style="whiteSpace=wrap;html=1;" vertex="1" parent="1">
                    <mxGeometry x="755" y="84" width="240" height="240" as="geometry"/>
                </mxCell>
                <mxCell id="31" value="" style="edgeStyle=none;orthogonalLoop=1;jettySize=auto;html=1;endArrow=none;endFill=0;dashed=1;entryX=0.324;entryY=1.004;entryDx=0;entryDy=0;entryPerimeter=0;" edge="1" parent="1" target="30">
                    <mxGeometry width="100" relative="1" as="geometry">
                        <mxPoint x="835" y="83" as="sourcePoint"/>
                        <mxPoint x="835" y="162" as="targetPoint"/>
                        <Array as="points"/>
                    </mxGeometry>
                </mxCell>
                <mxCell id="32" value="" style="edgeStyle=none;orthogonalLoop=1;jettySize=auto;html=1;endArrow=none;endFill=0;dashed=1;entryX=0.324;entryY=1.004;entryDx=0;entryDy=0;entryPerimeter=0;" edge="1" parent="1">
                    <mxGeometry width="100" relative="1" as="geometry">
                        <mxPoint x="914" y="82" as="sourcePoint"/>
                        <mxPoint x="912" y="322" as="targetPoint"/>
                        <Array as="points"/>
                    </mxGeometry>
                </mxCell>
                <mxCell id="33" value="" style="edgeStyle=none;orthogonalLoop=1;jettySize=auto;html=1;endArrow=none;endFill=0;dashed=1;entryX=0.324;entryY=1.004;entryDx=0;entryDy=0;entryPerimeter=0;" edge="1" parent="1">
                    <mxGeometry width="100" relative="1" as="geometry">
                        <mxPoint x="995" y="162" as="sourcePoint"/>
                        <mxPoint x="755" y="162" as="targetPoint"/>
                        <Array as="points"/>
                    </mxGeometry>
                </mxCell>
                <mxCell id="34" value="" style="edgeStyle=none;orthogonalLoop=1;jettySize=auto;html=1;endArrow=none;endFill=0;dashed=1;entryX=0.324;entryY=1.004;entryDx=0;entryDy=0;entryPerimeter=0;" edge="1" parent="1">
                    <mxGeometry width="100" relative="1" as="geometry">
                        <mxPoint x="995" y="242" as="sourcePoint"/>
                        <mxPoint x="755" y="242" as="targetPoint"/>
                        <Array as="points"/>
                    </mxGeometry>
                </mxCell>
                <mxCell id="35" value="$$M(A_1,B_1)$$" style="text;html=1;align=center;verticalAlign=middle;resizable=0;points=[];autosize=1;strokeColor=none;fillColor=none;" vertex="1" parent="1">
                    <mxGeometry x="740" y="112" width="110" height="30" as="geometry"/>
                </mxCell>
                <mxCell id="36" value="$$M(A_1,B_2)$$" style="text;html=1;align=center;verticalAlign=middle;resizable=0;points=[];autosize=1;strokeColor=none;fillColor=none;" vertex="1" parent="1">
                    <mxGeometry x="820" y="112" width="110" height="30" as="geometry"/>
                </mxCell>
                <mxCell id="37" value="$$M(A_1,B_3)$$" style="text;html=1;align=center;verticalAlign=middle;resizable=0;points=[];autosize=1;strokeColor=none;fillColor=none;" vertex="1" parent="1">
                    <mxGeometry x="897" y="112" width="110" height="30" as="geometry"/>
                </mxCell>
                <mxCell id="38" value="$$M(A_2,B_1)$$" style="text;html=1;align=center;verticalAlign=middle;resizable=0;points=[];autosize=1;strokeColor=none;fillColor=none;" vertex="1" parent="1">
                    <mxGeometry x="740" y="189" width="110" height="30" as="geometry"/>
                </mxCell>
                <mxCell id="39" value="$$M(A_2,B_2)$$" style="text;html=1;align=center;verticalAlign=middle;resizable=0;points=[];autosize=1;strokeColor=none;fillColor=none;" vertex="1" parent="1">
                    <mxGeometry x="815" y="189" width="110" height="30" as="geometry"/>
                </mxCell>
                <mxCell id="40" value="$$M(A_2,B_3)$$" style="text;html=1;align=center;verticalAlign=middle;resizable=0;points=[];autosize=1;strokeColor=none;fillColor=none;" vertex="1" parent="1">
                    <mxGeometry x="897" y="189" width="110" height="30" as="geometry"/>
                </mxCell>
                <mxCell id="41" value="$$M(A_3,B_3)$$" style="text;html=1;align=center;verticalAlign=middle;resizable=0;points=[];autosize=1;strokeColor=none;fillColor=none;" vertex="1" parent="1">
                    <mxGeometry x="897" y="272" width="110" height="30" as="geometry"/>
                </mxCell>
                <mxCell id="42" value="$$M(A_3,B_1)$$" style="text;html=1;align=center;verticalAlign=middle;resizable=0;points=[];autosize=1;strokeColor=none;fillColor=none;" vertex="1" parent="1">
                    <mxGeometry x="740" y="272" width="110" height="30" as="geometry"/>
                </mxCell>
                <mxCell id="43" value="$$M(A_3,B_2)$$" style="text;html=1;align=center;verticalAlign=middle;resizable=0;points=[];autosize=1;strokeColor=none;fillColor=none;" vertex="1" parent="1">
                    <mxGeometry x="819" y="272" width="110" height="30" as="geometry"/>
                </mxCell>
                <mxCell id="44" value="$$\approx$$" style="text;html=1;align=center;verticalAlign=middle;resizable=0;points=[];autosize=1;strokeColor=none;fillColor=none;fontSize=20;" vertex="1" parent="1">
                    <mxGeometry x="649" y="182" width="130" height="40" as="geometry"/>
                </mxCell>
            </root>
        </mxGraphModel>
    </diagram>
</mxfile>